<svg width="124" height="103" viewBox="0 0 124 103" fill="none" xmlns="http://www.w3.org/2000/svg">
<g filter="url(#filter0_d_12197_214551)">
<path d="M62.0008 94.9999C88.8215 94.9999 110.564 73.7344 110.564 47.5022C110.564 21.2699 88.8215 0.00439453 62.0008 0.00439453C35.18 0.00439453 13.4375 21.2699 13.4375 47.5022C13.4375 73.7344 35.18 94.9999 62.0008 94.9999Z" fill="#E6E6E6"/>
<path d="M62.0053 92.6887C87.5211 92.6887 108.206 72.4579 108.206 47.5018C108.206 22.5458 87.5211 2.31494 62.0053 2.31494C36.4894 2.31494 15.8047 22.5458 15.8047 47.5018C15.8047 72.4579 36.4894 92.6887 62.0053 92.6887Z" fill="#ECECEC"/>
<path d="M62.0024 2.5069C74.2884 2.5069 85.8415 7.18735 94.5314 15.6866C103.221 24.1858 108.007 35.4816 108.007 47.5019C108.007 59.5222 103.221 70.818 94.5314 79.3172C85.8415 87.8164 74.2924 92.4969 62.0024 92.4969C49.7164 92.4969 38.1632 87.8164 29.4733 79.3172C20.7835 70.818 15.998 59.5222 15.998 47.5019C15.998 35.4816 20.7835 24.1858 29.4733 15.6866C38.1632 7.18735 49.7164 2.5069 62.0024 2.5069ZM62.0024 2.11523C36.3772 2.11523 15.6016 22.435 15.6016 47.498C15.6016 72.5609 36.3772 92.8807 62.0024 92.8807C87.6275 92.8807 108.403 72.5609 108.403 47.498C108.403 22.435 87.6315 2.11523 62.0024 2.11523Z" fill="#3A67FF"/>
<path d="M109.536 60.8816H14.4639C8.68533 60.8816 4 56.2991 4 50.6473V47.4865C4 41.8347 8.68533 37.2522 14.4639 37.2522H109.536C115.315 37.2522 120 41.8347 120 47.4865V50.6473C120 56.2991 115.315 60.8816 109.536 60.8816Z" fill="#3A67FF"/>
<path d="M16.6763 54.3328L12.3594 43.887H15.1986L18.2341 51.6616L21.3296 43.887H24.0607L19.6837 54.3328H16.6763Z" fill="#ECECEC"/>
<path d="M25.0625 54.3328V43.887H33.4841V46.1116H27.6895V47.9917H31.5178V50.1419H27.6895V52.112H33.5442V54.3367H25.0625V54.3328Z" fill="#ECECEC"/>
<path d="M35.3203 54.3328V43.887H40.7825C41.3311 43.887 41.8357 43.9692 42.3002 44.1337C42.7648 44.2982 43.1612 44.5254 43.4896 44.8191C43.822 45.1129 44.0783 45.4615 44.2665 45.8727C44.4547 46.2801 44.5508 46.7266 44.5508 47.2162C44.5508 47.8742 44.3666 48.4577 44.0022 48.9787C43.6378 49.4996 43.1532 49.8873 42.5525 50.1576L44.8872 54.3367H41.9599L39.9456 50.5336H37.9473V54.3367H35.3203V54.3328ZM40.5382 46.0803H37.9433V48.4382H40.5382C40.9427 48.4382 41.2711 48.3285 41.5234 48.1092C41.7716 47.8898 41.8958 47.6078 41.8958 47.2592C41.8958 46.9107 41.7716 46.6286 41.5234 46.4093C41.2751 46.19 40.9467 46.0803 40.5382 46.0803Z" fill="#ECECEC"/>
<path d="M46.125 54.3328V43.887H48.748V54.3328H46.125Z" fill="#ECECEC"/>
<path d="M50.7422 54.3328V43.887H59.2238V46.1116H53.3652V48.0661H57.2696V50.2163H53.3652V54.3328H50.7422Z" fill="#ECECEC"/>
<path d="M60.9219 54.3328V43.887H63.5449V54.3328H60.9219Z" fill="#ECECEC"/>
<path d="M70.9909 52.1081C71.5075 52.1081 71.992 51.9984 72.4325 51.7791C72.877 51.5597 73.2735 51.2386 73.6299 50.8077L75.3519 52.4645C74.8513 53.0716 74.1985 53.5572 73.3896 53.9254C72.5807 54.2936 71.7478 54.4777 70.8948 54.4777C70.0899 54.4777 69.337 54.3367 68.6282 54.0586C67.9234 53.7805 67.3147 53.4006 66.8061 52.9227C66.2976 52.4449 65.8971 51.877 65.6008 51.2229C65.3044 50.5649 65.1562 49.8599 65.1562 49.104C65.1562 48.348 65.3044 47.6391 65.6008 46.9772C65.8971 46.3153 66.3016 45.7474 66.8141 45.2695C67.3267 44.7917 67.9354 44.4157 68.6362 44.1337C69.337 43.8556 70.0899 43.7146 70.8948 43.7146C71.3313 43.7146 71.7678 43.7655 72.2083 43.8634C72.6448 43.9614 73.0613 44.0984 73.4577 44.2747C73.8542 44.447 74.2186 44.6624 74.555 44.917C74.8913 45.1716 75.1797 45.4536 75.4239 45.7591L73.6539 47.459C73.2775 47.0007 72.857 46.656 72.3965 46.421C71.932 46.186 71.4314 46.0724 70.8948 46.0724C70.4663 46.0724 70.0698 46.1508 69.6974 46.3035C69.325 46.4563 69.0046 46.6678 68.7363 46.938C68.468 47.2083 68.2518 47.5255 68.0956 47.9015C67.9394 48.2736 67.8593 48.6731 67.8593 49.104C67.8593 49.5309 67.9394 49.9265 68.0956 50.2907C68.2518 50.655 68.472 50.9683 68.7523 51.2386C69.0327 51.5088 69.361 51.7203 69.7455 51.8731C70.1259 52.0297 70.5424 52.1081 70.9909 52.1081Z" fill="#ECECEC"/>
<path d="M75.7031 54.3328L80.0801 43.887H83.0835L87.4005 54.3328H84.5612L83.5841 51.8104H79.4194L78.4262 54.3328H75.7031ZM80.2163 49.7659H82.8112L81.5298 46.425L80.2163 49.7659Z" fill="#ECECEC"/>
<path d="M88.4062 54.3328V43.887H92.7392C93.5241 43.887 94.2609 44.024 94.9497 44.2982C95.6425 44.5724 96.2391 44.9406 96.7437 45.4106C97.2483 45.8766 97.6447 46.4328 97.9411 47.0752C98.2374 47.7175 98.3816 48.4068 98.3816 49.1432C98.3816 49.8599 98.2334 50.5375 97.9411 51.172C97.6447 51.8104 97.2483 52.3627 96.7437 52.8288C96.2391 53.2949 95.6425 53.663 94.9497 53.9333C94.2569 54.2035 93.5201 54.3367 92.7392 54.3367H88.4062V54.3328ZM92.6791 46.1547H91.0332V52.065H92.6791C93.0956 52.065 93.488 51.9906 93.8524 51.8418C94.2168 51.6929 94.5372 51.4854 94.8055 51.2229C95.0738 50.9605 95.2861 50.6472 95.4382 50.2908C95.5904 49.9343 95.6665 49.5505 95.6665 49.1432C95.6665 48.7241 95.5904 48.3363 95.4382 47.9721C95.2861 47.6078 95.0738 47.2945 94.8055 47.0242C94.5372 46.754 94.2168 46.5464 93.8524 46.3897C93.488 46.2331 93.0956 46.1547 92.6791 46.1547Z" fill="#ECECEC"/>
<path d="M111.034 49.1079C111.034 49.856 110.886 50.5571 110.593 51.219C110.297 51.8809 109.897 52.4527 109.388 52.9345C108.88 53.4162 108.275 53.7962 107.574 54.0782C106.873 54.3562 106.124 54.4973 105.331 54.4973C104.539 54.4973 103.79 54.3562 103.089 54.0782C102.388 53.8001 101.783 53.4202 101.275 52.9345C100.766 52.4527 100.366 51.8809 100.07 51.219C99.7732 50.5571 99.625 49.8521 99.625 49.1079C99.625 48.3637 99.7732 47.6587 100.07 46.9968C100.366 46.3349 100.766 45.763 101.275 45.2813C101.783 44.7995 102.388 44.4196 103.089 44.1376C103.79 43.8595 104.539 43.7185 105.331 43.7185C106.124 43.7185 106.873 43.8595 107.574 44.1376C108.275 44.4157 108.88 44.7956 109.388 45.2813C109.897 45.763 110.297 46.3349 110.593 46.9968C110.886 47.6587 111.034 48.3637 111.034 49.1079ZM108.331 49.1079C108.331 48.681 108.255 48.2815 108.103 47.9055C107.95 47.5334 107.738 47.2122 107.47 46.9419C107.202 46.6717 106.881 46.4641 106.517 46.3074C106.148 46.1547 105.752 46.0764 105.327 46.0764C104.899 46.0764 104.503 46.1547 104.138 46.3074C103.77 46.4602 103.453 46.6717 103.185 46.9419C102.917 47.2122 102.704 47.5295 102.552 47.9055C102.4 48.2775 102.324 48.677 102.324 49.1079C102.324 49.5348 102.4 49.9343 102.552 50.3103C102.704 50.6824 102.917 51.0036 103.185 51.2738C103.453 51.5441 103.774 51.7556 104.138 51.9083C104.503 52.0611 104.899 52.1394 105.327 52.1394C105.756 52.1394 106.152 52.0611 106.517 51.9083C106.881 51.7556 107.202 51.5441 107.47 51.2738C107.738 51.0036 107.95 50.6863 108.103 50.3103C108.255 49.9382 108.331 49.5387 108.331 49.1079Z" fill="#ECECEC"/>
<path d="M42.3533 77.2432L39.8504 78.5279L40.327 75.8058L38.3047 73.8749L41.0999 73.4793L42.3533 71L43.6027 73.4793L46.4019 73.8749L44.3756 75.8058L44.8562 78.5279L42.3533 77.2432Z" fill="#3A67FF"/>
<path d="M52.3377 77.2432L49.8348 78.5279L50.3154 75.8058L48.2891 73.8749L51.0882 73.4793L52.3377 71L53.5911 73.4793L56.3863 73.8749L54.364 75.8058L54.8405 78.5279L52.3377 77.2432Z" fill="#3A67FF"/>
<path d="M62.3299 77.2432L59.827 78.5279L60.3036 75.8058L58.2812 73.8749L61.0764 73.4793L62.3299 71L63.5793 73.4793L66.3785 73.8749L64.3522 75.8058L64.8327 78.5279L62.3299 77.2432Z" fill="#3A67FF"/>
<path d="M72.322 77.2432L69.8192 78.5279L70.2997 75.8058L68.2734 73.8749L71.0726 73.4793L72.322 71L73.5755 73.4793L76.3706 73.8749L74.3483 75.8058L74.8249 78.5279L72.322 77.2432Z" fill="#3A67FF"/>
<path d="M82.3142 77.2432L79.8114 78.5279L80.2879 75.8058L78.2656 73.8749L81.0608 73.4793L82.3142 71L83.5636 73.4793L86.3628 73.8749L84.3365 75.8058L84.8171 78.5279L82.3142 77.2432Z" fill="#3A67FF"/>
<path opacity="0.3" d="M109.534 37.2517H107.215C103.054 19.6266 88.3974 5.93379 70.0326 2.79652C67.8501 1.05359 65.0629 0.00783339 62.0234 0V24.8749V37.2517V60.8811V92.8805C82.8792 92.8688 100.511 79.4071 106.35 60.8811H109.534C115.312 60.8811 119.997 56.2986 119.997 50.6468V47.486C119.997 41.8342 115.312 37.2517 109.534 37.2517Z" fill="#ECECEC"/>
<path d="M38.3047 29.6022C38.3047 28.3452 39.1197 27.5063 40.3478 27.5063C41.1628 27.5063 41.8951 27.9829 42.1772 28.6992L41.385 28.9138C41.1998 28.5431 40.7838 28.2923 40.3478 28.2923C39.6098 28.2923 39.1197 28.8162 39.1197 29.6022C39.1197 30.3881 39.6069 30.9121 40.3478 30.9121C40.8009 30.9121 41.2226 30.6445 41.4021 30.2432L42.2057 30.4243C41.9378 31.1936 41.1998 31.7008 40.3478 31.7008C39.1225 31.7008 38.3047 30.8619 38.3047 29.6022Z" fill="#3A67FF"/>
<path d="M42.5312 30.1903C42.5312 29.2706 43.1325 28.6575 44.0387 28.6575C44.9391 28.6575 45.5404 29.2678 45.5404 30.1903C45.5404 31.11 44.9391 31.7232 44.0387 31.7232C43.1354 31.7232 42.5312 31.11 42.5312 30.1903ZM44.771 30.1903C44.771 29.7249 44.4917 29.41 44.0387 29.41C43.5913 29.41 43.3063 29.7249 43.3063 30.1903C43.3063 30.6558 43.5913 30.9651 44.0387 30.9651C44.4917 30.9651 44.771 30.6558 44.771 30.1903Z" fill="#3A67FF"/>
<path d="M50.9033 29.8001V31.6367H50.0883V29.984C50.0883 29.6524 49.886 29.3904 49.5213 29.3904C49.0939 29.3904 48.8602 29.722 48.8602 30.2126V31.6367H48.0509V29.984C48.0509 29.6524 47.8429 29.3904 47.4782 29.3904C47.0564 29.3904 46.8228 29.722 46.8228 30.2126V31.6367H46.0078V28.7243H46.7629L46.8 29.2204C46.9795 28.9055 47.367 28.6658 47.8486 28.6658C48.3074 28.6658 48.6465 28.8943 48.789 29.2956C48.92 28.9473 49.3617 28.6658 49.8917 28.6658C50.5357 28.6658 50.9033 29.0894 50.9033 29.8001Z" fill="#3A67FF"/>
<path d="M54.7241 30.1847C54.7241 31.1044 54.1513 31.7176 53.3022 31.7176C52.926 31.7176 52.5585 31.5531 52.3732 31.2856V32.6707H51.5469V28.7243H52.3276L52.3761 29.0783C52.567 28.8163 52.9289 28.6519 53.305 28.6519C54.1513 28.6546 54.7241 29.265 54.7241 30.1847ZM53.8949 30.1847C53.8949 29.6886 53.5843 29.357 53.1141 29.357C52.6439 29.357 52.3219 29.6886 52.3219 30.1847C52.3219 30.6919 52.6439 31.0236 53.1141 31.0236C53.5843 31.0236 53.8949 30.6919 53.8949 30.1847Z" fill="#3A67FF"/>
<path d="M55.0156 30.8313C55.0156 30.2962 55.4744 29.9228 56.1697 29.9005C56.4375 29.8838 56.808 29.9479 57.0331 30.0872V29.867C57.0331 29.5465 56.7538 29.3264 56.3606 29.3264C56.0757 29.3264 55.8078 29.4546 55.6625 29.6413L55.1496 29.2623C55.3832 28.8999 55.8876 28.6575 56.4489 28.6575C57.2753 28.6575 57.8481 29.1703 57.8481 29.9395V31.6368H57.0787L57.0302 31.2689C56.8878 31.5309 56.5116 31.7065 56.0956 31.7065C55.4516 31.7065 55.0156 31.3553 55.0156 30.8313ZM57.0331 30.5805C56.9562 30.4412 56.657 30.3185 56.3492 30.3548C56.0044 30.3826 55.7964 30.5582 55.8306 30.7867C55.8591 31.0125 56.0984 31.1351 56.4261 31.1017C56.7909 31.071 57.0331 30.862 57.0331 30.5805Z" fill="#3A67FF"/>
<path d="M60.4535 28.7244V29.4128C60.311 29.3766 60.1742 29.371 60.0489 29.371C59.6214 29.371 59.2681 29.7082 59.2681 30.2907V31.6368H58.4531V28.7244H59.1797L59.2396 29.2372C59.3821 28.953 59.6328 28.6826 60.103 28.6826C60.1913 28.6826 60.3167 28.6938 60.4535 28.7244Z" fill="#3A67FF"/>
<path d="M60.6562 30.8313C60.6562 30.2962 61.115 29.9228 61.8103 29.9005C62.0782 29.8838 62.4486 29.9479 62.6737 30.0872V29.867C62.6737 29.5465 62.3945 29.3264 62.0012 29.3264C61.7163 29.3264 61.4484 29.4546 61.3031 29.6413L60.7902 29.2623C61.021 28.8999 61.5282 28.6575 62.0896 28.6575C62.9159 28.6575 63.4887 29.1703 63.4887 29.9395V31.6368H62.7193L62.6709 31.2689C62.5284 31.5309 62.1523 31.7065 61.7362 31.7065C61.0894 31.7065 60.6562 31.3553 60.6562 30.8313ZM62.6737 30.5805C62.5968 30.4412 62.2976 30.3185 61.9898 30.3548C61.645 30.3826 61.437 30.5582 61.4712 30.7867C61.4997 31.0125 61.7391 31.1351 62.0668 31.1017C62.4315 31.071 62.6737 30.862 62.6737 30.5805Z" fill="#3A67FF"/>
<path d="M63.8922 31.2689L64.0347 31.0348C64.3909 31.255 64.8981 31.4027 65.297 31.4027C66.0664 31.4027 66.5764 31.0822 66.5764 30.5945C66.5764 29.4128 63.8438 30.0176 63.8438 28.5906C63.8438 27.9329 64.4621 27.4897 65.391 27.4897C65.7957 27.4897 66.2915 27.6291 66.6249 27.8214L66.4938 28.0555C66.1661 27.8855 65.7786 27.7712 65.3682 27.7712C64.6302 27.7712 64.1401 28.1029 64.1401 28.599C64.1401 29.7695 66.8728 29.1759 66.8728 30.5861C66.8728 31.2494 66.2402 31.687 65.2999 31.687C64.8154 31.6814 64.2541 31.5198 63.8922 31.2689Z" fill="#3A67FF"/>
<path d="M67.25 30.1903C67.25 29.2706 67.8399 28.6575 68.7204 28.6575C69.5952 28.6575 70.1793 29.2678 70.1793 30.1903C70.1793 31.11 69.5952 31.7232 68.7204 31.7232C67.8399 31.7232 67.25 31.11 67.25 30.1903ZM69.8944 30.1903C69.8944 29.4378 69.4242 28.939 68.7204 28.939C68.0051 28.939 67.535 29.4406 67.535 30.1903C67.535 30.9428 68.0051 31.4417 68.7204 31.4417C69.4242 31.4445 69.8944 30.9428 69.8944 30.1903Z" fill="#3A67FF"/>
<path d="M70.8591 28.9863H70.2578V28.7243H70.8591V28.3564C70.8591 27.7907 71.1754 27.4952 71.6284 27.5175C71.7481 27.5231 71.8906 27.5593 72.0103 27.6095L71.939 27.8297C71.5344 27.6652 71.1583 27.8185 71.1583 28.3369V28.7215H71.9932V28.9835H71.1583V31.6367H70.8619V28.9863H70.8591Z" fill="#3A67FF"/>
<path d="M73.0258 28.9863V30.9735C73.0258 31.1379 73.0543 31.3358 73.2281 31.386C73.3706 31.4333 73.5444 31.3915 73.7638 31.28V31.5476C73.6157 31.6173 73.4418 31.6702 73.2766 31.6647C72.9375 31.6647 72.7295 31.4305 72.7295 31.0236V28.9863H72.2422V28.7244H72.7295V28.1001L73.0258 28.0471V28.7216H73.7695V28.9836H73.0258V28.9863Z" fill="#3A67FF"/>
<path d="M74.0703 28.7244H74.3923L75.2557 31.2801L76.1248 28.7244H76.4468L77.3159 31.2801L78.1793 28.7244H78.5013L77.4755 31.6368H77.1535L76.2844 29.1368L75.421 31.6368H75.099L74.0703 28.7244Z" fill="#3A67FF"/>
<path d="M78.6484 30.8313C78.6484 30.3659 79.0588 29.9813 79.6714 29.906C80.1074 29.8475 80.6887 29.9534 80.9765 30.2683V29.7555C80.9765 29.2483 80.5548 28.9055 79.9877 28.9055C79.566 28.9055 79.2012 29.0866 79.0103 29.343L78.808 29.187C79.0331 28.8665 79.4919 28.6519 80.0105 28.6519C80.7371 28.6519 81.2729 29.1006 81.2729 29.775V31.6367H80.9879L80.9765 31.1072C80.8169 31.4695 80.3325 31.7008 79.7797 31.7008C79.1015 31.7008 78.6484 31.3497 78.6484 30.8313ZM80.9794 30.6223C80.9623 30.3018 80.3781 29.998 79.7341 30.1095C79.2525 30.1847 78.9419 30.4773 78.9476 30.8146C78.959 31.2159 79.3295 31.4667 79.8766 31.4612C80.5377 31.4556 80.9794 31.1184 80.9794 30.6223Z" fill="#3A67FF"/>
<path d="M83.7299 28.73V28.9919C83.5874 28.9501 83.4449 28.9334 83.3081 28.9334C82.6755 28.9334 82.2367 29.4936 82.2367 30.3381V31.6424H81.9375V28.7244H82.2111L82.2339 29.5215C82.3877 29.031 82.781 28.677 83.3167 28.677C83.4506 28.677 83.5874 28.6882 83.7299 28.73Z" fill="#3A67FF"/>
<path d="M86.7333 30.3185H84.106C84.1658 31.0069 84.6645 31.4668 85.4225 31.4668C85.7673 31.4668 86.1719 31.3219 86.4455 31.1128L86.5993 31.3051C86.283 31.556 85.8243 31.7232 85.3968 31.7232C84.4565 31.7232 83.8125 31.1128 83.8125 30.1903C83.8125 29.2706 84.4024 28.6575 85.2772 28.6575C86.1577 28.6575 86.7418 29.2678 86.7418 30.1903C86.7447 30.2266 86.739 30.2851 86.7333 30.3185ZM84.1088 30.0733H86.4597C86.4056 29.357 85.9468 28.9083 85.28 28.9083C84.6075 28.9111 84.1487 29.3709 84.1088 30.0733Z" fill="#3A67FF"/>
<path d="M62.511 25.7031C67.5093 25.7031 71.5611 21.7401 71.5611 16.8515C71.5611 11.963 67.5093 8 62.511 8C57.5128 8 53.4609 11.963 53.4609 16.8515C53.4609 21.7401 57.5128 25.7031 62.511 25.7031Z" fill="#3A67FF"/>
<path d="M64.6786 12.2919C63.0715 10.7201 60.4527 10.7201 58.8456 12.2919C57.2499 13.8527 57.2613 16.4 58.8713 17.9747L60.1194 19.1954L59.1078 20.1848L60.3559 21.4055C61.963 22.9773 64.5675 22.9885 66.1632 21.4278C67.7703 19.8559 67.7703 17.2946 66.1632 15.7228L64.9151 14.502L65.9267 13.5127L64.6786 12.2919ZM63.9007 15.4914L65.1488 16.7121C66.1974 17.7378 66.1974 19.41 65.1488 20.4356C64.1115 21.4501 62.4161 21.4389 61.3674 20.4133L60.1194 19.1926L61.1309 18.2032L59.8828 16.9825C58.8314 15.9541 58.82 14.2958 59.8572 13.2813C60.9058 12.2557 62.6155 12.2557 63.6642 13.2813L64.9123 14.502L63.9007 15.4914Z" fill="#ECECEC"/>
<path d="M64.1638 19.424C64.6539 18.9446 64.6539 18.1615 64.1638 17.6821L62.9157 16.4614L63.9045 15.4943L62.6564 14.2736C62.1662 13.7942 61.3655 13.7942 60.8754 14.2736C60.3853 14.753 60.3853 15.5361 60.8754 16.0155L62.1235 17.2362L61.1347 18.2033L62.3828 19.424C62.8729 19.9033 63.6736 19.9033 64.1638 19.424Z" fill="#ECECEC"/>
</g>
<defs>
<filter id="filter0_d_12197_214551" x="0" y="0" width="124" height="103" filterUnits="userSpaceOnUse" color-interpolation-filters="sRGB">
<feFlood flood-opacity="0" result="BackgroundImageFix"/>
<feColorMatrix in="SourceAlpha" type="matrix" values="0 0 0 0 0 0 0 0 0 0 0 0 0 0 0 0 0 0 127 0" result="hardAlpha"/>
<feOffset dy="4"/>
<feGaussianBlur stdDeviation="2"/>
<feComposite in2="hardAlpha" operator="out"/>
<feColorMatrix type="matrix" values="0 0 0 0 0 0 0 0 0 0 0 0 0 0 0 0 0 0 0.25 0"/>
<feBlend mode="normal" in2="BackgroundImageFix" result="effect1_dropShadow_12197_214551"/>
<feBlend mode="normal" in="SourceGraphic" in2="effect1_dropShadow_12197_214551" result="shape"/>
</filter>
</defs>
</svg>
